<mxfile host="Electron" agent="Mozilla/5.0 (Macintosh; Intel Mac OS X 10_15_7) AppleWebKit/537.36 (KHTML, like Gecko) draw.io/24.7.17 Chrome/128.0.6613.36 Electron/32.0.1 Safari/537.36" version="24.7.17">
  <diagram name="Page-1" id="I_vAI6bezVmmWGP37-cC">
    <mxGraphModel dx="1168" dy="698" grid="0" gridSize="10" guides="1" tooltips="1" connect="1" arrows="1" fold="1" page="1" pageScale="1" pageWidth="3300" pageHeight="4681" math="0" shadow="0">
      <root>
        <mxCell id="0" />
        <mxCell id="1" parent="0" />
        <mxCell id="KUjtMMlZ2XUVZ9haEhoY-21" value="" style="rounded=1;whiteSpace=wrap;html=1;" parent="1" vertex="1">
          <mxGeometry x="490" y="200" width="460" height="360" as="geometry" />
        </mxCell>
        <mxCell id="KUjtMMlZ2XUVZ9haEhoY-23" style="rounded=0;orthogonalLoop=1;jettySize=auto;html=1;exitX=1;exitY=0.5;exitDx=0;exitDy=0;entryX=0;entryY=0.5;entryDx=0;entryDy=0;" parent="1" source="KUjtMMlZ2XUVZ9haEhoY-1" target="KUjtMMlZ2XUVZ9haEhoY-4" edge="1">
          <mxGeometry relative="1" as="geometry" />
        </mxCell>
        <mxCell id="KUjtMMlZ2XUVZ9haEhoY-24" style="rounded=0;orthogonalLoop=1;jettySize=auto;html=1;" parent="1" source="KUjtMMlZ2XUVZ9haEhoY-1" target="KUjtMMlZ2XUVZ9haEhoY-11" edge="1">
          <mxGeometry relative="1" as="geometry" />
        </mxCell>
        <mxCell id="KUjtMMlZ2XUVZ9haEhoY-28" style="rounded=0;orthogonalLoop=1;jettySize=auto;html=1;exitX=1;exitY=0.5;exitDx=0;exitDy=0;entryX=0.001;entryY=0.203;entryDx=0;entryDy=0;entryPerimeter=0;" parent="1" source="KUjtMMlZ2XUVZ9haEhoY-1" target="KUjtMMlZ2XUVZ9haEhoY-21" edge="1">
          <mxGeometry relative="1" as="geometry" />
        </mxCell>
        <mxCell id="KUjtMMlZ2XUVZ9haEhoY-1" value="客户端" style="rounded=0;whiteSpace=wrap;html=1;fillColor=#ffff05;strokeColor=#d6b656;" parent="1" vertex="1">
          <mxGeometry x="205" y="160" width="140" height="70" as="geometry" />
        </mxCell>
        <mxCell id="KUjtMMlZ2XUVZ9haEhoY-26" style="rounded=0;orthogonalLoop=1;jettySize=auto;html=1;exitX=0.5;exitY=1;exitDx=0;exitDy=0;" parent="1" source="KUjtMMlZ2XUVZ9haEhoY-2" target="KUjtMMlZ2XUVZ9haEhoY-6" edge="1">
          <mxGeometry relative="1" as="geometry" />
        </mxCell>
        <mxCell id="KUjtMMlZ2XUVZ9haEhoY-2" value="服务端" style="rounded=0;whiteSpace=wrap;html=1;fillColor=#99ffff;strokeColor=#6c8ebf;" parent="1" vertex="1">
          <mxGeometry x="1040" y="160" width="140" height="70" as="geometry" />
        </mxCell>
        <mxCell id="KUjtMMlZ2XUVZ9haEhoY-3" value="&lt;p style=&quot;margin: 0pt 0pt 0.0001pt; text-indent: 21pt; text-align: justify;&quot; class=&quot;MsoNormal&quot;&gt;&lt;font face=&quot;宋体&quot;&gt;&lt;span style=&quot;font-size: 14px;&quot;&gt;&lt;b style=&quot;&quot;&gt;信任（仓）库与目标文件管理相关功能&lt;/b&gt;&lt;/span&gt;&lt;/font&gt;&lt;br&gt;&lt;/p&gt;&lt;p style=&quot;margin: 0pt 0pt 0.0001pt; text-indent: 21pt; text-align: justify;&quot; class=&quot;MsoNormal&quot;&gt;&lt;span style=&quot;background-color: rgb(153, 255, 153);&quot;&gt;&lt;font style=&quot;&quot; face=&quot;宋体&quot;&gt;&lt;span style=&quot;font-size: 14px;&quot;&gt;-&amp;nbsp;&lt;/span&gt;&lt;/font&gt;&lt;span style=&quot;font-size: 10.5pt; font-family: 宋体; text-indent: 10pt;&quot;&gt;提供镜像签名认证软件信任（仓）库初始化功能&lt;/span&gt;&lt;/span&gt;&lt;/p&gt;&lt;p style=&quot;margin: 0pt 0pt 0.0001pt; text-indent: 21pt; text-align: justify;&quot; class=&quot;MsoNormal&quot;&gt;&lt;span style=&quot;background-color: rgb(153, 255, 153);&quot;&gt;&lt;span style=&quot;font-size: 10.5pt; font-family: 宋体; text-indent: 10pt;&quot;&gt;-&amp;nbsp;&lt;/span&gt;&lt;span style=&quot;font-size: 10.5pt; font-family: 宋体; text-indent: 10pt;&quot;&gt;提供镜像签名认证软件信任库内容列举功能&lt;/span&gt;&lt;/span&gt;&lt;/p&gt;&lt;p style=&quot;margin: 0pt 0pt 0.0001pt; text-indent: 21pt; text-align: justify;&quot; class=&quot;MsoNormal&quot;&gt;&lt;span style=&quot;background-color: rgb(153, 255, 153);&quot;&gt;&lt;span style=&quot;font-size: 10.5pt; font-family: 宋体; text-indent: 10pt;&quot;&gt;-&amp;nbsp;&lt;/span&gt;&lt;span style=&quot;font-size: 10.5pt; font-family: 宋体; text-indent: 10pt;&quot;&gt;提供镜像签名认证软件信任库对目标文件的增、删、更、查功能&lt;/span&gt;&lt;/span&gt;&lt;/p&gt;&lt;p style=&quot;margin: 0pt 0pt 0.0001pt; text-indent: 21pt; text-align: justify;&quot; class=&quot;MsoNormal&quot;&gt;&lt;span style=&quot;background-color: rgb(153, 255, 153);&quot;&gt;&lt;span style=&quot;font-size: 10.5pt; font-family: 宋体; text-indent: 10pt;&quot;&gt;-&amp;nbsp;&lt;/span&gt;&lt;span style=&quot;text-align: start; text-indent: -9.95pt; font-family: 宋体; font-size: 10.5pt;&quot;&gt;提供快照元数据生成并签名功能&lt;/span&gt;&lt;/span&gt;&lt;/p&gt;&lt;p style=&quot;font-size: medium; text-align: start; margin-left: 9.95pt; text-indent: -9.95pt;&quot; class=&quot;17&quot;&gt;&lt;span style=&quot;font-family: 宋体; font-size: 10.5pt;&quot;&gt;&lt;/span&gt;&lt;/p&gt;" style="rounded=1;whiteSpace=wrap;html=1;" parent="1" vertex="1">
          <mxGeometry x="500" y="230" width="440" height="100" as="geometry" />
        </mxCell>
        <mxCell id="KUjtMMlZ2XUVZ9haEhoY-4" value="&lt;p style=&quot;margin: 0pt 0pt 0.0001pt; text-indent: 21pt; text-align: justify; font-family: 宋体; font-size: 10.5pt;&quot; class=&quot;MsoNormal&quot;&gt;&lt;span style=&quot;background-image: initial; background-position: initial; background-size: initial; background-repeat: initial; background-attachment: initial; background-origin: initial; background-clip: initial; font-size: 10.5pt;&quot;&gt;&lt;font style=&quot;&quot; face=&quot;宋体&quot;&gt;角色与密钥管理相关功能&lt;/font&gt;&lt;/span&gt;&lt;span style=&quot;font-size: 10.5pt; background-image: initial; background-position: initial; background-size: initial; background-repeat: initial; background-attachment: initial; background-origin: initial; background-clip: initial; background: rgb(255, 255, 0); font-size: 10.5pt;&quot;&gt;&lt;/span&gt;&lt;/p&gt;&lt;p style=&quot;margin: 0pt 0pt 0.0001pt; text-indent: 21pt; text-align: justify; font-family: 宋体; font-size: 10.5pt;&quot; class=&quot;MsoNormal&quot;&gt;&lt;span style=&quot;font-size: 10.5pt; background-image: initial; background-position: initial; background-size: initial; background-repeat: initial; background-attachment: initial; background-origin: initial; background-clip: initial; background-color: rgb(255, 255, 0);&quot;&gt;&lt;/span&gt;&lt;/p&gt;&lt;p style=&quot;margin: 0pt 0pt 0.0001pt; text-indent: 10pt; text-align: justify; font-family: 宋体; font-size: 10.5pt;&quot; class=&quot;MsoNormal&quot;&gt;&lt;span style=&quot;background-color: rgb(153, 255, 153);&quot;&gt;&lt;span style=&quot;font-size: 10.5pt;&quot;&gt;-&amp;nbsp;&lt;/span&gt;&lt;span style=&quot;font-size: 10.5pt; text-indent: 10pt;&quot;&gt;提供本地存储所有密钥列举功能&lt;/span&gt;&lt;/span&gt;&lt;/p&gt;&lt;p style=&quot;margin: 0pt 0pt 0.0001pt; text-indent: 10pt; text-align: justify; font-family: 宋体; font-size: 10.5pt;&quot; class=&quot;MsoNormal&quot;&gt;&lt;span style=&quot;background-color: rgb(153, 255, 153);&quot;&gt;&lt;span style=&quot;text-indent: 13.3333px;&quot;&gt;- 提供密钥轮换功能&lt;/span&gt;&lt;span style=&quot;font-size: 10.5pt; text-indent: 10pt;&quot;&gt;&lt;br&gt;&lt;/span&gt;&lt;/span&gt;&lt;/p&gt;&lt;p style=&quot;margin: 0pt 0pt 0.0001pt; text-indent: 10pt; text-align: justify; font-family: 宋体; font-size: 10.5pt;&quot; class=&quot;MsoNormal&quot;&gt;&lt;span style=&quot;background-color: rgb(153, 255, 153);&quot;&gt;&lt;b style=&quot;font-size: 10.5pt; text-indent: 10pt;&quot;&gt;-&amp;nbsp;&lt;/b&gt;&lt;span style=&quot;font-size: 10.5pt; text-indent: 10pt;&quot;&gt;提供密钥吊销检查的功能&lt;/span&gt;&lt;/span&gt;&lt;span style=&quot;text-indent: 13.3333px;&quot;&gt;&lt;br&gt;&lt;/span&gt;&lt;/p&gt;&lt;p style=&quot;margin: 0pt 0pt 0.0001pt; text-indent: 10pt; text-align: justify; font-family: 宋体; font-size: 10.5pt;&quot; class=&quot;MsoNormal&quot;&gt;&lt;span style=&quot;background-color: rgb(255, 255, 0);&quot;&gt;&lt;span style=&quot;font-size: 10.5pt; text-indent: 10pt;&quot;&gt;-&amp;nbsp;&lt;/span&gt;&lt;span style=&quot;font-size: 10.5pt; text-indent: 10pt;&quot;&gt;提供新公私钥（Root Key， Target Key）对生成功能&lt;/span&gt;&lt;span style=&quot;font-size: 10.5pt; text-indent: 10pt;&quot;&gt;&amp;nbsp;&lt;/span&gt;&lt;/span&gt;&lt;/p&gt;&lt;p style=&quot;margin: 0pt 0pt 0.0001pt; text-indent: 10pt; text-align: justify; font-family: 宋体; font-size: 10.5pt;&quot; class=&quot;MsoNormal&quot;&gt;&lt;span style=&quot;background-color: rgb(255, 255, 0);&quot;&gt;&lt;span style=&quot;font-size: 10.5pt; text-indent: 10pt;&quot;&gt;-&amp;nbsp;&lt;/span&gt;&lt;span style=&quot;font-size: 10.5pt; text-indent: 10pt;&quot;&gt;提供委托角色（密钥）添加、回收、列举功能&lt;/span&gt;&lt;/span&gt;&lt;span style=&quot;font-size: 10.5pt; text-indent: 10pt; background-color: initial;&quot;&gt;&lt;br&gt;&lt;/span&gt;&lt;/p&gt;&lt;p style=&quot;margin: 0pt 0pt 0.0001pt; text-indent: 10pt; text-align: justify; font-family: 宋体; font-size: 10.5pt;&quot; class=&quot;MsoNormal&quot;&gt;&lt;span style=&quot;background-color: rgb(153, 255, 255);&quot;&gt;&lt;span style=&quot;font-size: 10.5pt; text-indent: 10pt;&quot;&gt;-&amp;nbsp;&lt;/span&gt;&lt;b style=&quot;font-size: 10.5pt; text-indent: 10pt;&quot;&gt;提供新公私钥对（Timestamp Key&lt;/b&gt;&lt;b style=&quot;font-size: 10.5pt; text-indent: 10pt;&quot;&gt;、Snapshot Key&lt;/b&gt;&lt;b style=&quot;font-size: 10.5pt; text-indent: 10pt;&quot;&gt;）生成功能&lt;/b&gt;&lt;/span&gt;&lt;/p&gt;&lt;p style=&quot;margin: 0pt 0pt 0.0001pt; text-indent: 10pt; text-align: justify; font-family: 宋体; font-size: 10.5pt;&quot; class=&quot;MsoNormal&quot;&gt;&lt;span style=&quot;background-color: rgb(153, 255, 255);&quot;&gt;&lt;span style=&quot;font-size: 10.5pt; text-indent: 10pt;&quot;&gt;-&amp;nbsp;&lt;/span&gt;&lt;b style=&quot;font-size: 10.5pt; text-indent: 10pt;&quot;&gt;提供时间戳&lt;/b&gt;&lt;b style=&quot;font-size: 10.5pt; text-indent: 10pt;&quot;&gt;和&lt;/b&gt;&lt;b style=&quot;font-size: 10.5pt; text-indent: 10pt;&quot;&gt;快照元数据签名的功能&lt;/b&gt;&lt;/span&gt;&lt;/p&gt;" style="rounded=1;whiteSpace=wrap;html=1;" parent="1" vertex="1">
          <mxGeometry x="500" y="50" width="440" height="140" as="geometry" />
        </mxCell>
        <mxCell id="KUjtMMlZ2XUVZ9haEhoY-6" value="&lt;p style=&quot;margin: 0pt 0pt 0.0001pt; text-indent: 10pt; font-family: 宋体; font-size: 10.5pt;&quot; class=&quot;MsoNormal&quot;&gt;&lt;span style=&quot;font-size: 10.5pt; background-image: initial; background-position: initial; background-size: initial; background-repeat: initial; background-attachment: initial; background-origin: initial; background-clip: initial; background-color: rgb(255, 255, 255);&quot;&gt;&lt;font style=&quot;&quot; face=&quot;宋体&quot;&gt;TUF元数据管理相关功能&lt;/font&gt;&lt;/span&gt;&lt;/p&gt;&lt;p style=&quot;text-indent: 13.3333px; margin: 0pt 0pt 0.0001pt; font-family: 宋体; font-size: 10.5pt;&quot; class=&quot;MsoNormal&quot;&gt;&lt;span style=&quot;background-color: rgb(153, 255, 255);&quot;&gt;&lt;span style=&quot;font-size: 10.5pt; text-indent: -9.95pt;&quot;&gt;-&amp;nbsp;&lt;/span&gt;&lt;span style=&quot;font-size: 10.5pt; text-indent: -9.95pt;&quot;&gt;提供元数据存储与更新的功能&lt;/span&gt;&lt;/span&gt;&lt;/p&gt;&lt;p style=&quot;text-indent: 13.3333px; margin: 0pt 0pt 0.0001pt; font-family: 宋体; font-size: 10.5pt;&quot; class=&quot;MsoNormal&quot;&gt;&lt;span style=&quot;font-size: 10.5pt; text-indent: 10pt;&quot;&gt;&lt;span style=&quot;background-color: rgb(153, 255, 255);&quot;&gt;- 提供目标文件元数据验证与冲突检测功能，&lt;/span&gt;&lt;/span&gt;&lt;span style=&quot;background-color: rgb(153, 255, 255);&quot;&gt;&lt;span style=&quot;font-size: 10.5pt; text-indent: 10pt;&quot;&gt;支持&lt;/span&gt;&lt;span style=&quot;font-size: 10.5pt; text-indent: 10pt;&quot;&gt;对客户端提交的元数据进行格式、签名及版本的验证&lt;/span&gt;&lt;/span&gt;&lt;/p&gt;" style="rounded=1;whiteSpace=wrap;html=1;align=center;" parent="1" vertex="1">
          <mxGeometry x="960" y="342.5" width="340" height="97.5" as="geometry" />
        </mxCell>
        <mxCell id="KUjtMMlZ2XUVZ9haEhoY-11" value="&lt;span style=&quot;font-family: 宋体; font-size: 14px;&quot;&gt;容器镜像签名与管理相关功能&lt;/span&gt;&lt;div&gt;&lt;span style=&quot;background-color: rgb(255, 255, 0);&quot;&gt;&lt;span style=&quot;font-family: 宋体; font-size: 14px;&quot;&gt;-&amp;nbsp;&lt;/span&gt;&lt;span style=&quot;font-family: 宋体; font-size: 14px; text-indent: 13.3333px;&quot;&gt;提供为镜像创建签名功能&lt;/span&gt;&lt;/span&gt;&lt;/div&gt;&lt;div&gt;&lt;span style=&quot;background-color: rgb(255, 255, 0);&quot;&gt;&lt;span style=&quot;font-size: 10.5pt; font-family: 宋体; text-indent: 10pt;&quot;&gt;-&amp;nbsp;&lt;/span&gt;&lt;span style=&quot;font-size: 10.5pt; font-family: 宋体; text-indent: 10pt;&quot;&gt;提供镜像信任验证开关设定功能&lt;/span&gt;&lt;/span&gt;&lt;/div&gt;&lt;div&gt;&lt;span style=&quot;background-color: rgb(255, 255, 0);&quot;&gt;&lt;span style=&quot;font-size: 10.5pt; font-family: 宋体; text-indent: 10pt;&quot;&gt;-&amp;nbsp;&lt;/span&gt;&lt;span style=&quot;font-size: 10.5pt; font-family: 宋体; text-indent: 10pt;&quot;&gt;提供镜像元数据签名发布功能&lt;/span&gt;&lt;span style=&quot;font-size: 10.5pt; font-family: 宋体; text-indent: 10pt;&quot;&gt;&lt;br&gt;&lt;/span&gt;&lt;/span&gt;&lt;/div&gt;&lt;div&gt;&lt;span style=&quot;background-color: rgb(255, 255, 0);&quot;&gt;&lt;span style=&quot;font-size: 10.5pt; font-family: 宋体; text-indent: 10pt;&quot;&gt;-&amp;nbsp;&lt;/span&gt;&lt;span style=&quot;font-size: 10.5pt; font-family: 宋体; text-indent: 10pt;&quot;&gt;提供查看镜像信任信息功能&lt;/span&gt;&lt;span style=&quot;font-size: 10.5pt; font-family: 宋体; text-indent: 10pt;&quot;&gt;&lt;br&gt;&lt;/span&gt;&lt;/span&gt;&lt;/div&gt;&lt;div&gt;&lt;span style=&quot;background-color: rgb(255, 255, 0);&quot;&gt;&lt;span style=&quot;font-size: 10.5pt; font-family: 宋体; text-indent: 10pt;&quot;&gt;-&amp;nbsp;&lt;/span&gt;&lt;span style=&quot;font-size: 10.5pt; font-family: 宋体; text-indent: 10pt;&quot;&gt;提供撤销指定镜像信任功能&lt;/span&gt;&lt;span style=&quot;font-size: 10.5pt; font-family: 宋体; text-indent: 10pt;&quot;&gt;&lt;br&gt;&lt;/span&gt;&lt;/span&gt;&lt;/div&gt;&lt;div&gt;&lt;span style=&quot;background-color: rgb(255, 255, 0);&quot;&gt;&lt;span style=&quot;font-size: 10.5pt; font-family: 宋体; text-indent: 10pt;&quot;&gt;-&amp;nbsp;&lt;/span&gt;&lt;span style=&quot;font-size: 10.5pt; font-family: 宋体; text-indent: 10pt;&quot;&gt;提供密钥吊销检查的功能，发起吊销请求、生成签名元数据更新&lt;/span&gt;&lt;span style=&quot;font-size: 10.5pt; font-family: 宋体; text-indent: 10pt;&quot;&gt;&lt;br&gt;&lt;/span&gt;&lt;/span&gt;&lt;/div&gt;&lt;div&gt;&lt;span style=&quot;background-color: rgb(255, 255, 0);&quot;&gt;&lt;span style=&quot;font-size: 10.5pt; font-family: 宋体; text-indent: 10pt;&quot;&gt;-&amp;nbsp;&lt;/span&gt;&lt;span style=&quot;font-size: 10.5pt; font-family: 宋体; text-indent: 10pt;&quot;&gt;提供推送镜像时自动签名功能，支持信任链构建，完成签名生成与上传&lt;/span&gt;&lt;span style=&quot;font-size: 10.5pt; font-family: 宋体; text-indent: 10pt;&quot;&gt;&lt;br&gt;&lt;/span&gt;&lt;/span&gt;&lt;/div&gt;&lt;div&gt;&lt;span style=&quot;background-color: rgb(255, 255, 0);&quot;&gt;&lt;span style=&quot;font-size: 10.5pt; font-family: 宋体; text-indent: 10pt;&quot;&gt;-&amp;nbsp;&lt;/span&gt;&lt;span style=&quot;font-size: 10.5pt; font-family: 宋体; text-indent: 10pt;&quot;&gt;提供对拉取的镜像信任验证功能，支持信任链和签名的验证&lt;/span&gt;&lt;/span&gt;&lt;span style=&quot;font-size: 10.5pt; font-family: 宋体; text-indent: 10pt;&quot;&gt;&lt;br&gt;&lt;/span&gt;&lt;/div&gt;" style="rounded=1;whiteSpace=wrap;html=1;" parent="1" vertex="1">
          <mxGeometry x="30" y="330" width="450" height="160" as="geometry" />
        </mxCell>
        <mxCell id="KUjtMMlZ2XUVZ9haEhoY-15" value="&lt;p style=&quot;margin: 0pt 0pt 0.0001pt; text-indent: 21pt; font-family: 宋体; font-size: 10.5pt;&quot; class=&quot;MsoNormal&quot;&gt;辅助管理功能&lt;/p&gt;&lt;p style=&quot;margin: 0pt 0pt 0.0001pt; text-indent: 21pt; font-family: 宋体; font-size: 10.5pt;&quot; class=&quot;MsoNormal&quot;&gt;&lt;span style=&quot;background-color: rgb(153, 255, 153);&quot;&gt;-&amp;nbsp;&lt;span style=&quot;font-size: 10.5pt; text-indent: 0pt;&quot;&gt;提供镜像签名认证软件服务器设定功能&lt;/span&gt;&lt;/span&gt;&lt;/p&gt;&lt;p style=&quot;margin: 0pt 0pt 0.0001pt; text-indent: 21pt; font-family: 宋体; font-size: 10.5pt;&quot; class=&quot;MsoNormal&quot;&gt;&lt;span style=&quot;background-color: rgb(153, 255, 153);&quot;&gt;&lt;span style=&quot;font-size: 10.5pt; text-indent: 0pt;&quot;&gt;-&amp;nbsp;&lt;/span&gt;&lt;span style=&quot;font-size: 10.5pt; text-indent: 10pt;&quot;&gt;提供本地密钥文件安全存储信息设定功能&lt;/span&gt;&lt;/span&gt;&lt;/p&gt;&lt;p style=&quot;margin: 0pt 0pt 0.0001pt; text-indent: 21pt; font-family: 宋体; font-size: 10.5pt;&quot; class=&quot;MsoNormal&quot;&gt;&lt;span style=&quot;background-color: rgb(153, 255, 153);&quot;&gt;&lt;span style=&quot;font-size: 10.5pt; text-indent: 10pt;&quot;&gt;-&amp;nbsp;&lt;/span&gt;&lt;span style=&quot;font-size: 10.5pt; text-indent: 10pt;&quot;&gt;提供客户端使用帮助信息查看功能&lt;/span&gt;&lt;/span&gt;&lt;/p&gt;&lt;p style=&quot;margin-left: 0pt; text-indent: 0pt; text-align: justify; font-family: 宋体; font-size: 10.5pt;&quot; class=&quot;MsoListNumber&quot;&gt;&lt;span style=&quot;font-size: 10.5pt;&quot;&gt;&lt;/span&gt;&lt;/p&gt;" style="rounded=1;whiteSpace=wrap;html=1;" parent="1" vertex="1">
          <mxGeometry x="498" y="452" width="440" height="90" as="geometry" />
        </mxCell>
        <mxCell id="KUjtMMlZ2XUVZ9haEhoY-16" value="&lt;font style=&quot;font-size: 14px;&quot;&gt;通用功能&lt;/font&gt;&lt;div&gt;&lt;span style=&quot;background-color: rgb(153, 255, 153);&quot;&gt;-&amp;nbsp;&lt;span style=&quot;font-size: 10.5pt; font-family: 宋体; text-align: justify; text-indent: 10pt;&quot;&gt;提供服务端与客户端交互安全通信通道功能&lt;/span&gt;&lt;/span&gt;&lt;/div&gt;&lt;div&gt;&lt;span style=&quot;background-color: rgb(153, 255, 153);&quot;&gt;&lt;span style=&quot;font-size: 10.5pt; font-family: 宋体; text-align: justify; text-indent: 10pt;&quot;&gt;-&amp;nbsp;&lt;/span&gt;&lt;span style=&quot;font-size: 10.5pt; font-family: 宋体; text-align: justify; text-indent: 10pt;&quot;&gt;提供多种算法支持和扩展性的功能&lt;/span&gt;&lt;/span&gt;&lt;/div&gt;&lt;div&gt;&lt;span style=&quot;background-color: rgb(153, 255, 153);&quot;&gt;&lt;span style=&quot;font-size: 10.5pt; font-family: 宋体; text-align: justify; text-indent: 10pt;&quot;&gt;-&amp;nbsp;&lt;/span&gt;&lt;font style=&quot;font-size: 10.5pt; font-family: 宋体; text-align: justify; text-indent: 10pt;&quot; face=&quot;宋体&quot;&gt;提供&lt;/font&gt;&lt;font style=&quot;font-size: 10.5pt; font-family: 宋体; text-align: justify; text-indent: 10pt;&quot; face=&quot;宋体&quot;&gt;JWS格式的签名封装&lt;/font&gt;&lt;/span&gt;&lt;/div&gt;&lt;div&gt;&lt;span style=&quot;background-color: rgb(153, 255, 153);&quot;&gt;&lt;font style=&quot;font-size: 10.5pt; font-family: 宋体; text-align: justify; text-indent: 10pt;&quot; face=&quot;宋体&quot;&gt;-&amp;nbsp;&lt;/font&gt;&lt;span style=&quot;font-size: 10.5pt; font-family: 宋体; text-align: justify; text-indent: 10pt;&quot;&gt;提供关键数据的备份恢复功能&lt;/span&gt;&lt;/span&gt;&lt;/div&gt;&lt;div&gt;&lt;span style=&quot;background-color: rgb(153, 255, 153);&quot;&gt;&lt;span style=&quot;font-size: 10.5pt; font-family: 宋体; text-align: justify; text-indent: 10pt;&quot;&gt;-&amp;nbsp;&lt;/span&gt;&lt;span style=&quot;font-size: 10.5pt; font-family: 宋体; text-align: justify; text-indent: 10pt;&quot;&gt;提供日志记录的功能&lt;/span&gt;&lt;/span&gt;&lt;/div&gt;" style="rounded=1;whiteSpace=wrap;html=1;" parent="1" vertex="1">
          <mxGeometry x="500" y="336.25" width="440" height="110" as="geometry" />
        </mxCell>
        <mxCell id="KUjtMMlZ2XUVZ9haEhoY-25" style="rounded=0;orthogonalLoop=1;jettySize=auto;html=1;exitX=0;exitY=0.5;exitDx=0;exitDy=0;entryX=0.997;entryY=0.421;entryDx=0;entryDy=0;entryPerimeter=0;" parent="1" source="KUjtMMlZ2XUVZ9haEhoY-2" target="KUjtMMlZ2XUVZ9haEhoY-4" edge="1">
          <mxGeometry relative="1" as="geometry" />
        </mxCell>
        <mxCell id="KUjtMMlZ2XUVZ9haEhoY-27" style="rounded=0;orthogonalLoop=1;jettySize=auto;html=1;exitX=0;exitY=0.5;exitDx=0;exitDy=0;entryX=1.003;entryY=0.203;entryDx=0;entryDy=0;entryPerimeter=0;" parent="1" source="KUjtMMlZ2XUVZ9haEhoY-2" target="KUjtMMlZ2XUVZ9haEhoY-21" edge="1">
          <mxGeometry relative="1" as="geometry" />
        </mxCell>
        <mxCell id="KUjtMMlZ2XUVZ9haEhoY-31" value="Docker Cli" style="rounded=1;whiteSpace=wrap;html=1;verticalAlign=top;fillColor=#d5e8d4;strokeColor=#82b366;" parent="1" vertex="1">
          <mxGeometry x="250" y="622" width="540" height="309" as="geometry" />
        </mxCell>
        <mxCell id="KUjtMMlZ2XUVZ9haEhoY-32" value="Notary" style="rounded=1;whiteSpace=wrap;html=1;verticalAlign=top;" parent="1" vertex="1">
          <mxGeometry x="464" y="661" width="760" height="243" as="geometry" />
        </mxCell>
        <mxCell id="KUjtMMlZ2XUVZ9haEhoY-35" style="edgeStyle=orthogonalEdgeStyle;rounded=0;orthogonalLoop=1;jettySize=auto;html=1;exitX=1;exitY=0.5;exitDx=0;exitDy=0;entryX=0;entryY=0.5;entryDx=0;entryDy=0;startArrow=classic;startFill=1;" parent="1" source="KUjtMMlZ2XUVZ9haEhoY-29" target="KUjtMMlZ2XUVZ9haEhoY-30" edge="1">
          <mxGeometry relative="1" as="geometry" />
        </mxCell>
        <mxCell id="KUjtMMlZ2XUVZ9haEhoY-41" value="元文件传输" style="edgeLabel;html=1;align=center;verticalAlign=middle;resizable=0;points=[];" parent="KUjtMMlZ2XUVZ9haEhoY-35" vertex="1" connectable="0">
          <mxGeometry x="0.0205" relative="1" as="geometry">
            <mxPoint x="1" y="-10" as="offset" />
          </mxGeometry>
        </mxCell>
        <mxCell id="KUjtMMlZ2XUVZ9haEhoY-29" value="Notary Cli" style="rounded=1;whiteSpace=wrap;html=1;fillColor=#fff2cc;strokeColor=#d6b656;verticalAlign=top;" parent="1" vertex="1">
          <mxGeometry x="520" y="691" width="258" height="190" as="geometry" />
        </mxCell>
        <mxCell id="KUjtMMlZ2XUVZ9haEhoY-30" value="Notary Server" style="rounded=1;whiteSpace=wrap;html=1;fillColor=#fff2cc;strokeColor=#d6b656;verticalAlign=top;" parent="1" vertex="1">
          <mxGeometry x="900" y="694.5" width="307" height="182.5" as="geometry" />
        </mxCell>
        <mxCell id="KUjtMMlZ2XUVZ9haEhoY-33" value="Local Iamges" style="rounded=1;whiteSpace=wrap;html=1;fillColor=#f5f5f5;fontColor=#333333;strokeColor=#666666;" parent="1" vertex="1">
          <mxGeometry x="272" y="749.5" width="120" height="60" as="geometry" />
        </mxCell>
        <mxCell id="KUjtMMlZ2XUVZ9haEhoY-36" value="密钥与元数据存储" style="rounded=1;whiteSpace=wrap;html=1;fillColor=#f5f5f5;fontColor=#333333;strokeColor=#666666;" parent="1" vertex="1">
          <mxGeometry x="583" y="825" width="104" height="25" as="geometry" />
        </mxCell>
        <mxCell id="KUjtMMlZ2XUVZ9haEhoY-42" value="Docker Hub" style="rounded=1;whiteSpace=wrap;html=1;fillColor=#f5f5f5;fontColor=#333333;strokeColor=#666666;" parent="1" vertex="1">
          <mxGeometry x="906" y="582" width="228" height="64" as="geometry" />
        </mxCell>
        <mxCell id="KUjtMMlZ2XUVZ9haEhoY-43" style="rounded=0;orthogonalLoop=1;jettySize=auto;html=1;exitX=0;exitY=0.5;exitDx=0;exitDy=0;entryX=0.985;entryY=0.042;entryDx=0;entryDy=0;entryPerimeter=0;startArrow=classic;startFill=1;" parent="1" source="KUjtMMlZ2XUVZ9haEhoY-42" target="KUjtMMlZ2XUVZ9haEhoY-31" edge="1">
          <mxGeometry relative="1" as="geometry" />
        </mxCell>
        <mxCell id="KUjtMMlZ2XUVZ9haEhoY-45" value="拉取/推送" style="edgeLabel;html=1;align=center;verticalAlign=middle;resizable=0;points=[];" parent="KUjtMMlZ2XUVZ9haEhoY-43" vertex="1" connectable="0">
          <mxGeometry x="0.0898" y="2" relative="1" as="geometry">
            <mxPoint x="4" y="-5" as="offset" />
          </mxGeometry>
        </mxCell>
        <mxCell id="KUjtMMlZ2XUVZ9haEhoY-46" value="&lt;span style=&quot;color: rgb(0, 0, 0); font-family: 宋体; font-size: 14px; text-indent: 28px;&quot;&gt;信任仓库与目标文件管理&lt;/span&gt;" style="rounded=1;whiteSpace=wrap;html=1;fillColor=#f5f5f5;fontColor=#333333;strokeColor=#666666;" parent="1" vertex="1">
          <mxGeometry x="549" y="769.5" width="163" height="20" as="geometry" />
        </mxCell>
        <mxCell id="KUjtMMlZ2XUVZ9haEhoY-49" value="&lt;span style=&quot;color: rgb(0, 0, 0); font-family: 宋体; font-size: 14px; text-indent: 28px;&quot;&gt;信任库与目标文件管理&lt;/span&gt;" style="rounded=1;whiteSpace=wrap;html=1;fillColor=#f5f5f5;fontColor=#333333;strokeColor=#666666;" parent="1" vertex="1">
          <mxGeometry x="1027" y="764" width="175" height="20" as="geometry" />
        </mxCell>
        <mxCell id="KUjtMMlZ2XUVZ9haEhoY-53" value="配置管理" style="rounded=1;whiteSpace=wrap;html=1;fillColor=#f5f5f5;fontColor=#333333;strokeColor=#666666;" parent="1" vertex="1">
          <mxGeometry x="539" y="853" width="88" height="23" as="geometry" />
        </mxCell>
        <mxCell id="KUjtMMlZ2XUVZ9haEhoY-55" value="&lt;span style=&quot;color: rgb(0, 0, 0); font-family: 宋体; font-size: 14px; text-indent: 28px;&quot;&gt;角色与密钥管理&lt;/span&gt;" style="rounded=1;whiteSpace=wrap;html=1;fillColor=#f5f5f5;fontColor=#333333;strokeColor=#666666;" parent="1" vertex="1">
          <mxGeometry x="581.5" y="741.5" width="114" height="19" as="geometry" />
        </mxCell>
        <mxCell id="KUjtMMlZ2XUVZ9haEhoY-58" value="容器镜像签名与管理" style="rounded=1;whiteSpace=wrap;html=1;fillColor=#f8cecc;strokeColor=#b85450;" parent="1" vertex="1">
          <mxGeometry x="492" y="728.5" width="43" height="102" as="geometry" />
        </mxCell>
        <mxCell id="KUjtMMlZ2XUVZ9haEhoY-59" value="TUF元数据校验" style="rounded=1;whiteSpace=wrap;html=1;fillColor=#f8cecc;strokeColor=#b85450;" parent="1" vertex="1">
          <mxGeometry x="965" y="741.5" width="57" height="82.5" as="geometry" />
        </mxCell>
        <mxCell id="KUjtMMlZ2XUVZ9haEhoY-63" value="配置管理" style="rounded=1;whiteSpace=wrap;html=1;fillColor=#f5f5f5;fontColor=#333333;strokeColor=#666666;" parent="1" vertex="1">
          <mxGeometry x="1022" y="845.75" width="81" height="22.75" as="geometry" />
        </mxCell>
        <mxCell id="KUjtMMlZ2XUVZ9haEhoY-65" value="&lt;span style=&quot;color: rgb(0, 0, 0); font-family: 宋体; font-size: 14px; text-indent: 28px;&quot;&gt;角色与密钥管理&lt;/span&gt;" style="rounded=1;whiteSpace=wrap;html=1;fillColor=#f5f5f5;fontColor=#333333;strokeColor=#666666;" parent="1" vertex="1">
          <mxGeometry x="1051.5" y="735" width="117" height="23" as="geometry" />
        </mxCell>
        <mxCell id="KUjtMMlZ2XUVZ9haEhoY-66" value="密钥与元数据存储" style="rounded=1;whiteSpace=wrap;html=1;fillColor=#f5f5f5;fontColor=#333333;strokeColor=#666666;" parent="1" vertex="1">
          <mxGeometry x="1056" y="816" width="108" height="24.5" as="geometry" />
        </mxCell>
        <mxCell id="KUjtMMlZ2XUVZ9haEhoY-71" style="edgeStyle=orthogonalEdgeStyle;rounded=0;orthogonalLoop=1;jettySize=auto;html=1;entryX=1;entryY=0.5;entryDx=0;entryDy=0;exitX=0;exitY=0.5;exitDx=0;exitDy=0;" parent="1" source="KUjtMMlZ2XUVZ9haEhoY-58" target="KUjtMMlZ2XUVZ9haEhoY-33" edge="1">
          <mxGeometry relative="1" as="geometry">
            <mxPoint x="451" y="789.0999999999999" as="sourcePoint" />
          </mxGeometry>
        </mxCell>
        <mxCell id="KUjtMMlZ2XUVZ9haEhoY-72" value="签名/&lt;div&gt;验证&lt;/div&gt;" style="edgeLabel;html=1;align=center;verticalAlign=middle;resizable=0;points=[];" parent="KUjtMMlZ2XUVZ9haEhoY-71" vertex="1" connectable="0">
          <mxGeometry x="-0.4118" y="1" relative="1" as="geometry">
            <mxPoint x="-27" y="-1" as="offset" />
          </mxGeometry>
        </mxCell>
        <mxCell id="KUjtMMlZ2XUVZ9haEhoY-78" value="加密算法" style="rounded=1;whiteSpace=wrap;html=1;fillColor=#f5f5f5;fontColor=#333333;strokeColor=#666666;" parent="1" vertex="1">
          <mxGeometry x="596.5" y="796" width="77" height="23.5" as="geometry" />
        </mxCell>
        <mxCell id="KUjtMMlZ2XUVZ9haEhoY-79" value="通信模块" style="rounded=1;whiteSpace=wrap;html=1;fillColor=#f5f5f5;fontColor=#333333;strokeColor=#666666;" parent="1" vertex="1">
          <mxGeometry x="721" y="758" width="50" height="53" as="geometry" />
        </mxCell>
        <mxCell id="KUjtMMlZ2XUVZ9haEhoY-82" value="通信模块" style="rounded=1;whiteSpace=wrap;html=1;fillColor=#f5f5f5;fontColor=#333333;strokeColor=#666666;" parent="1" vertex="1">
          <mxGeometry x="906" y="761.5" width="50" height="50.5" as="geometry" />
        </mxCell>
        <mxCell id="KUjtMMlZ2XUVZ9haEhoY-83" value="日志备份" style="rounded=1;whiteSpace=wrap;html=1;fillColor=#f5f5f5;fontColor=#333333;strokeColor=#666666;" parent="1" vertex="1">
          <mxGeometry x="644" y="852.5" width="77" height="23.5" as="geometry" />
        </mxCell>
        <mxCell id="KUjtMMlZ2XUVZ9haEhoY-84" value="加密算法" style="rounded=1;whiteSpace=wrap;html=1;fillColor=#f5f5f5;fontColor=#333333;strokeColor=#666666;" parent="1" vertex="1">
          <mxGeometry x="1071.5" y="789.5" width="77" height="23.5" as="geometry" />
        </mxCell>
        <mxCell id="KUjtMMlZ2XUVZ9haEhoY-86" value="日志备份" style="rounded=1;whiteSpace=wrap;html=1;fillColor=#f5f5f5;fontColor=#333333;strokeColor=#666666;" parent="1" vertex="1">
          <mxGeometry x="1111" y="845" width="77" height="23.5" as="geometry" />
        </mxCell>
      </root>
    </mxGraphModel>
  </diagram>
</mxfile>
